PathFileType	4	(x/y/z)	S05_M20_T11
DataRate	CameraRate	NumFrames	NumMarkers	Units	OrigDataRate	OrigDataStartFrame	OrigNumFrames
240	240	4	50	mm	240	383	510
Frame#	Time	Sternum			R.Acromium			L.Acromium			Top.Head			R.ASIS			L.ASIS			R.PSIS			L.PSIS			R.Great.Tro			L.Great.Tro			R.Iliac.Crest			L.Iliac.Crest			V.Sacral			R.Thigh.Upper.Post			R.Thigh.Lower.Ant			R.Thigh.Lower.Post			R.Thigh.Upper.Ant			R.Knee.Lat			R.Knee.Med			R.Shank.Upper.Post			R.Shank.Lower.Ant			R.Shank.Lower.Post			R.Shank.Upper.Ant			R.Ankle.Lat			R.Ankle.Med			R.Heel.Upper			R.Heel.Med			R.Heel.Lat			R.Toe.Lat			R.Toe.Med			R.Toe.Tip			L.Thigh.Upper.Post			L.Thigh.Lower.Ant			L.Thigh.Lower.Post			L.Thigh.Upper.Ant			L.Knee.Lat			L.Shank.Upper.Post			L.Shank.Lower.Ant			L.Shank.Lower.Post			L.Shank.Upper.Ant			L.Ankle.Lat			L.Ankle.Med			L.Heel.Upper			L.Heel.Med			L.Heel.Lat			L.Toe.Lat			L.Toe.Med			L.Toe.Tip			Cervical.Spine			Back			
		X1	Y1	Z1	X2	Y2	Z2	X3	Y3	Z3	X4	Y4	Z4	X5	Y5	Z5	X6	Y6	Z6	X7	Y7	Z7	X8	Y8	Z8	X9	Y9	Z9	X10	Y10	Z10	X11	Y11	Z11	X12	Y12	Z12	X13	Y13	Z13	X14	Y14	Z14	X15	Y15	Z15	X16	Y16	Z16	X17	Y17	Z17	X18	Y18	Z18	X19	Y19	Z19	X20	Y20	Z20	X21	Y21	Z21	X22	Y22	Z22	X23	Y23	Z23	X24	Y24	Z24	X25	Y25	Z25	X26	Y26	Z26	X27	Y27	Z27	X28	Y28	Z28	X29	Y29	Z29	X30	Y30	Z30	X31	Y31	Z31	X32	Y32	Z32	X33	Y33	Z33	X34	Y34	Z34	X35	Y35	Z35	X36	Y36	Z36	X37	Y37	Z37	X38	Y38	Z38	X39	Y39	Z39	X40	Y40	Z40	X41	Y41	Z41	X42	Y42	Z42	X43	Y43	Z43	X44	Y44	Z44	X45	Y45	Z45	X46	Y46	Z46	X47	Y47	Z47	X48	Y48	Z48	X49	Y49	Z49	X50	Y50	Z50	

383	1.5917	1284.3	1238.1	330.77	1185.2	1508.3	462.98	1195.5	1500.9	129.65	1173.8	1795.9	253.37	1198.2	979.54	465.57	1240.9	993.61	219.92	1014.8	1004.1	345.78	1031.5	1008.4	254.72	1102	898.34	512.09	1182.4	917.19	123.12	1107.9	1066.2	489.14	1158.7	1067.2	155.22	1007.2	971.65	308.86	1169.5	671.43	529.99	1230.5	598.38	492.68	1162.7	582.15	514.63	1233.1	687.23	506.85	1145.9	493.82	504.68	1171.6	467.25	375.78	923.42	417.08	467.68	899.89	329.54	466.35	861.02	377.4	444.54	963.03	369.53	488.71	799.48	300.93	442.62	845.85	282.81	361.7	748.09	328.69	367.05	726.35	307	335.09	717.16	314.29	399.8	746.38	158.74	469.94	787.57	120.02	363	817.24	70.867	417.88	1247.2	684.05	144.18	1339.8	636.57	182.18	1280.6	597.19	166.63	1314.4	721.34	160.35	1317.3	519.13	178.42	1266.5	314.92	179.76	1334.7	260.54	189.62	1266.2	243.79	199.29	1329.6	330.43	174.98	1299	114.91	210.89	1329.6	130.15	297.11	1241.2	67.785	264.08	1252	43.58	296.77	1244.1	40.08	235.58	1426.1	38.662	183.88	1448.3	52.788	302.84	1512	64.336	249.51	1134.4	1542.9	299.72	1018.9	1266.8	307.15
384	1.5958	1289.6	1239.4	330.34	1190.5	1509.6	462.66	1201	1502.4	129.35	1179.6	1797.3	253.32	1203.5	981.17	465.07	1246.1	994.84	219.4	1020	1005.2	345.46	1036.7	1009.5	254.41	1108	899.55	511.85	1187.4	918.21	122.83	1113.1	1067.6	488.66	1164	1068.4	154.72	1012.4	972.79	308.54	1178.7	673.26	529.68	1240.7	601.1	492.1	1173.2	583.91	514.31	1242.2	689.98	506.28	1157.7	495.49	504.27	1183.5	469.36	375.32	935.61	418.1	467.43	912.42	330.48	465.98	873.3	378.24	444.38	975.43	370.67	488.29	812.12	301.47	442.34	858.39	284.02	361.21	759.85	329.04	367.04	738.29	307.17	335.07	729.22	314.17	399.82	760.59	158.87	469.4	801.88	120.98	362.2	832.32	72.121	416.83	1250.9	684.64	144.06	1343.2	636.59	182.17	1283.8	597.56	166.53	1318.4	721.51	160.31	1319.8	519.17	178.38	1267.8	315.2	179.88	1335.8	260.43	189.73	1267.2	244.08	199.41	1331.1	330.34	175.01	1299.3	115.05	211.01	1329.8	130.19	297.26	1241.3	67.887	264.13	1252	43.635	296.81	1244.2	40.208	235.61	1426.1	38.64	183.9	1448.4	52.563	302.95	1512.1	63.965	249.57	1139.9	1544.3	299.4	1024.3	1268.2	306.51
385	1.6	1294.8	1240.7	329.91	1195.8	1510.8	462.35	1206.5	1503.8	129.05	1185.2	1798.7	253.31	1208.9	982.8	464.58	1251.3	996.06	218.88	1025.2	1006.4	345.17	1041.9	1010.7	254.13	1114.1	900.78	511.65	1192.4	919.22	122.57	1118.3	1069	488.19	1169.2	1069.6	154.24	1017.6	973.92	308.26	1188	675.17	529.38	1250.8	603.89	491.52	1183.6	585.75	513.98	1251.1	692.8	505.7	1169.4	497.24	503.85	1195.3	471.56	374.86	947.78	419.03	467.16	925	331.3	465.59	885.6	378.93	444.19	987.85	371.75	487.86	824.83	301.8	442.03	871.02	285.08	360.69	771.67	329.14	367.02	750.31	307.08	335.04	741.36	313.77	399.83	774.99	158.76	468.81	816.42	121.76	361.35	847.66	73.229	415.71	1254.6	685.21	143.92	1346.6	636.58	182.11	1286.9	597.93	166.42	1322.2	721.66	160.24	1322.2	519.19	178.32	1269.1	315.46	179.91	1337	260.31	189.82	1268.1	244.35	199.46	1332.5	330.25	175.03	1299.6	115.19	211.12	1330.1	130.24	297.39	1241.3	67.986	264.17	1252	43.695	296.84	1244.2	40.336	235.65	1426.2	38.615	183.91	1448.5	52.352	303.05	1512.3	63.609	249.62	1145.3	1545.6	299.09	1029.7	1269.5	305.9
386	1.6042	1300	1242	329.49	1201	1512.1	462.04	1212	1505.3	128.77	1190.9	1800.1	253.35	1214.3	984.44	464.09	1256.4	997.27	218.36	1030.4	1007.5	344.91	1047.1	1011.8	253.87	1120.1	902.03	511.48	1197.3	920.22	122.33	1123.5	1070.4	487.74	1174.3	1070.7	153.79	1022.8	975.05	308.02	1197.1	677.15	529.08	1260.9	606.77	490.93	1194	587.68	513.66	1260	695.67	505.12	1181	499.06	503.43	1207	473.84	374.4	959.92	419.87	466.87	937.62	332.02	465.18	897.9	379.48	443.98	1000.3	372.77	487.4	837.62	301.93	441.7	883.73	285.98	360.15	783.55	328.99	367	762.41	306.72	334.99	753.57	313.1	399.82	789.6	158.42	468.17	831.18	122.37	360.45	863.25	74.192	414.55	1258.1	685.77	143.78	1349.8	636.55	182.02	1289.8	598.28	166.29	1326	721.79	160.14	1324.6	519.22	178.25	1270.4	315.71	179.85	1338.1	260.21	189.88	1269.1	244.61	199.46	1333.9	330.17	175.02	1299.9	115.32	211.21	1330.4	130.29	297.5	1241.4	68.081	264.22	1252.1	43.761	296.88	1244.2	40.463	235.68	1426.3	38.586	183.92	1448.6	52.152	303.13	1512.4	63.265	249.66	1150.7	1546.9	298.78	1035	1270.9	305.32
